<svg width="481" height="745" viewBox="0 0 481 745" fill="none" xmlns="http://www.w3.org/2000/svg">
<mask id="path-1-outside-1_1848_44418" maskUnits="userSpaceOnUse" x="0" y="0" width="481" height="762" fill="black">
<rect fill="white" width="481" height="762"/>
<path fill-rule="evenodd" clip-rule="evenodd" d="M338.016 447.51C416.574 410.938 471 331.547 471 239.5C471 112.751 367.802 10 240.5 10C113.198 10 10 112.751 10 239.5C10 329.948 62.5503 408.175 138.91 445.565L87.5 751H390L338.016 447.51Z"/>
</mask>
<path d="M338.016 447.51L333.796 438.445L326.87 441.669L328.16 449.199L338.016 447.51ZM138.91 445.565L148.771 447.225L150.01 439.866L143.308 436.584L138.91 445.565ZM87.5 751L77.6387 749.34L75.6762 761H87.5V751ZM390 751V761H401.859L399.856 749.312L390 751ZM461 239.5C461 327.497 408.977 403.444 333.796 438.445L342.237 456.576C424.171 418.432 481 335.597 481 239.5H461ZM240.5 20C362.32 20 461 118.314 461 239.5H481C481 107.187 373.283 0 240.5 0V20ZM20 239.5C20 118.314 118.68 20 240.5 20V0C107.717 0 0 107.187 0 239.5H20ZM143.308 436.584C70.2291 400.8 20 325.968 20 239.5H0C0 333.927 54.8716 415.549 134.512 454.546L143.308 436.584ZM97.3613 752.66L148.771 447.225L129.049 443.905L77.6387 749.34L97.3613 752.66ZM390 741H87.5V761H390V741ZM328.16 449.199L380.144 752.688L399.856 749.312L347.873 445.822L328.16 449.199Z" fill="url(#paint0_linear_1848_44418)" mask="url(#path-1-outside-1_1848_44418)"/>
<defs>
<linearGradient id="paint0_linear_1848_44418" x1="471" y1="9.99996" x2="-189.067" y2="457.134" gradientUnits="userSpaceOnUse">
<stop stop-color="#CDCDCD"/>
<stop offset="1" stop-color="#1767FD"/>
</linearGradient>
</defs>
</svg>
